<mxfile host="app.diagrams.net" modified="2023-05-25T07:03:13.270Z" agent="Mozilla/5.0 (Macintosh; Intel Mac OS X 10_15_7) AppleWebKit/537.36 (KHTML, like Gecko) Chrome/113.0.0.0 Safari/537.36" etag="3ndu-G26sLUyZS3sCq_Q" version="21.3.3" type="github">
  <diagram name="페이지-1" id="rulnj-KbUzy-cfcLN-6n">
    <mxGraphModel dx="1035" dy="663" grid="1" gridSize="10" guides="1" tooltips="1" connect="1" arrows="1" fold="1" page="1" pageScale="1" pageWidth="827" pageHeight="1169" math="0" shadow="0">
      <root>
        <mxCell id="0" />
        <mxCell id="1" parent="0" />
        <mxCell id="swcYw1HhRYChGdD9pWNU-7" style="edgeStyle=orthogonalEdgeStyle;rounded=0;orthogonalLoop=1;jettySize=auto;html=1;" edge="1" parent="1">
          <mxGeometry relative="1" as="geometry">
            <mxPoint x="222" y="250" as="sourcePoint" />
            <mxPoint x="407" y="250" as="targetPoint" />
            <Array as="points">
              <mxPoint x="222" y="250" />
              <mxPoint x="347" y="250" />
            </Array>
          </mxGeometry>
        </mxCell>
        <mxCell id="swcYw1HhRYChGdD9pWNU-1" value="ERP/Frontend.git" style="rounded=0;whiteSpace=wrap;html=1;" vertex="1" parent="1">
          <mxGeometry x="167" y="160" width="110" height="30" as="geometry" />
        </mxCell>
        <mxCell id="swcYw1HhRYChGdD9pWNU-3" value="Jenkins Server" style="rounded=0;whiteSpace=wrap;html=1;" vertex="1" parent="1">
          <mxGeometry x="347" y="160" width="120" height="30" as="geometry" />
        </mxCell>
        <mxCell id="swcYw1HhRYChGdD9pWNU-10" value="Web Server" style="rounded=0;whiteSpace=wrap;html=1;" vertex="1" parent="1">
          <mxGeometry x="540.5" y="160" width="120" height="30" as="geometry" />
        </mxCell>
        <mxCell id="swcYw1HhRYChGdD9pWNU-14" value="" style="endArrow=none;html=1;rounded=0;entryX=0.5;entryY=1;entryDx=0;entryDy=0;" edge="1" parent="1" target="swcYw1HhRYChGdD9pWNU-1">
          <mxGeometry width="50" height="50" relative="1" as="geometry">
            <mxPoint x="222" y="500" as="sourcePoint" />
            <mxPoint x="567" y="350" as="targetPoint" />
          </mxGeometry>
        </mxCell>
        <mxCell id="swcYw1HhRYChGdD9pWNU-15" value="" style="endArrow=none;html=1;rounded=0;entryX=0.5;entryY=1;entryDx=0;entryDy=0;" edge="1" parent="1">
          <mxGeometry width="50" height="50" relative="1" as="geometry">
            <mxPoint x="407" y="500" as="sourcePoint" />
            <mxPoint x="406.58" y="190" as="targetPoint" />
          </mxGeometry>
        </mxCell>
        <mxCell id="swcYw1HhRYChGdD9pWNU-17" value="checkout branch:&amp;nbsp;&lt;br&gt;dev, qa, main" style="rounded=0;whiteSpace=wrap;html=1;" vertex="1" parent="1">
          <mxGeometry x="230" y="271" width="170" height="70" as="geometry" />
        </mxCell>
        <mxCell id="swcYw1HhRYChGdD9pWNU-18" value="" style="endArrow=none;html=1;rounded=0;exitX=0.5;exitY=0;exitDx=0;exitDy=0;" edge="1" parent="1" source="swcYw1HhRYChGdD9pWNU-17">
          <mxGeometry width="50" height="50" relative="1" as="geometry">
            <mxPoint x="517" y="400" as="sourcePoint" />
            <mxPoint x="315" y="250" as="targetPoint" />
          </mxGeometry>
        </mxCell>
        <mxCell id="swcYw1HhRYChGdD9pWNU-20" value="" style="endArrow=none;html=1;rounded=0;entryX=0.5;entryY=1;entryDx=0;entryDy=0;" edge="1" parent="1">
          <mxGeometry width="50" height="50" relative="1" as="geometry">
            <mxPoint x="597" y="500" as="sourcePoint" />
            <mxPoint x="597" y="190" as="targetPoint" />
          </mxGeometry>
        </mxCell>
        <mxCell id="swcYw1HhRYChGdD9pWNU-22" style="edgeStyle=orthogonalEdgeStyle;rounded=0;orthogonalLoop=1;jettySize=auto;html=1;" edge="1" parent="1">
          <mxGeometry relative="1" as="geometry">
            <mxPoint x="405" y="250" as="sourcePoint" />
            <mxPoint x="595" y="250" as="targetPoint" />
            <Array as="points">
              <mxPoint x="405" y="250" />
              <mxPoint x="530" y="250" />
            </Array>
          </mxGeometry>
        </mxCell>
        <mxCell id="swcYw1HhRYChGdD9pWNU-23" value="※ 빌드 환경&lt;br&gt;- Linux (amd64)&lt;br&gt;- NodeJS 18.14.0&lt;br&gt;&lt;br&gt;※&amp;nbsp;파이프라인 구성: Jenkinsfile&lt;br&gt;&lt;br&gt;CI&lt;br&gt;- Global Depdendency Install&lt;br&gt;- Pruned Repo Build&lt;br&gt;- Compress&lt;br&gt;&lt;br&gt;CD&lt;br&gt;- SSH Publish&lt;br&gt;- deploy 스크립트 실행" style="rounded=0;whiteSpace=wrap;html=1;align=left;" vertex="1" parent="1">
          <mxGeometry x="415" y="271" width="170" height="229" as="geometry" />
        </mxCell>
        <mxCell id="swcYw1HhRYChGdD9pWNU-24" value="" style="endArrow=none;html=1;rounded=0;exitX=0.5;exitY=0;exitDx=0;exitDy=0;" edge="1" parent="1" source="swcYw1HhRYChGdD9pWNU-23">
          <mxGeometry width="50" height="50" relative="1" as="geometry">
            <mxPoint x="702" y="400" as="sourcePoint" />
            <mxPoint x="500" y="250" as="targetPoint" />
          </mxGeometry>
        </mxCell>
      </root>
    </mxGraphModel>
  </diagram>
</mxfile>
